<svg width="554" height="554" viewBox="0 0 554 554" fill="none" xmlns="http://www.w3.org/2000/svg">
<g clip-path="url(#clip0_10_37)">
<path d="M277 0C203.535 0 133.079 29.1838 81.1314 81.1314C29.1838 133.079 0 203.535 0 277C0 313.376 7.16482 349.396 21.0854 383.003C35.0059 416.61 55.4096 447.147 81.1314 472.869C133.079 524.816 203.535 554 277 554C350.465 554 420.921 524.816 472.869 472.869C524.816 420.921 554 350.465 554 277C554 203.535 524.816 133.079 472.869 81.1314C420.921 29.1838 350.465 0 277 0ZM277 24.2721C344.028 24.2721 408.31 50.8987 455.706 98.2944C503.101 145.69 529.728 209.972 529.728 277C529.728 344.028 503.101 408.31 455.706 455.706C408.31 503.101 344.028 529.728 277 529.728C209.972 529.728 145.69 503.101 98.2944 455.706C50.8987 408.31 24.2721 344.028 24.2721 277C24.2721 209.972 50.8987 145.69 98.2944 98.2944C145.69 50.8987 209.972 24.2721 277 24.2721Z" fill="black"/>
<path d="M281.262 47.4554H281.262C276.592 47.4554 272.806 51.241 272.806 55.9109V74.3374C272.806 79.0073 276.592 82.7929 281.262 82.7929H281.262C285.932 82.7929 289.718 79.0073 289.718 74.3374V55.9109C289.718 51.241 285.932 47.4554 281.262 47.4554Z" fill="#D1462F"/>
<path d="M340.635 56.387L340.634 56.3868C336.12 55.1896 331.491 57.8783 330.293 62.3921L325.569 80.2027C324.372 84.7165 327.061 89.3461 331.575 90.5433L331.575 90.5434C336.089 91.7407 340.719 89.0521 341.916 84.5383L346.64 66.7278C347.837 62.214 345.149 57.5842 340.635 56.387Z" fill="#D1462F"/>
<path d="M395.702 80.1698L395.702 80.1696C391.645 77.8559 386.481 79.2684 384.167 83.3248L375.038 99.3304C372.724 103.387 374.137 108.551 378.193 110.865L378.194 110.865C382.25 113.179 387.414 111.766 389.728 107.71L398.858 91.7039C401.171 87.6475 399.758 82.4835 395.702 80.1698Z" fill="#D1462F"/>
<path d="M442.018 116.493L442.017 116.492C438.672 113.233 433.319 113.303 430.061 116.648L417.202 129.846C413.943 133.191 414.013 138.544 417.358 141.803L417.359 141.804C420.704 145.062 426.057 144.992 429.315 141.648L442.174 128.449C445.432 125.104 445.363 119.751 442.018 116.493Z" fill="#D1462F"/>
<path d="M477.696 163.273L477.696 163.273C475.277 159.278 470.078 158 466.084 160.419L450.321 169.963C446.327 172.381 445.049 177.581 447.468 181.575L447.468 181.576C449.887 185.57 455.086 186.848 459.08 184.429L474.843 174.885C478.837 172.467 480.115 167.268 477.696 163.273Z" fill="#D1462F"/>
<path d="M501.267 220.251L501.267 220.25C499.985 215.76 495.305 213.159 490.815 214.441L473.097 219.501C468.606 220.783 466.006 225.462 467.288 229.953L467.288 229.953C468.57 234.444 473.25 237.044 477.74 235.762L495.458 230.703C499.949 229.421 502.55 224.741 501.267 220.251Z" fill="#D1462F"/>
<path d="M508.941 277.263L508.941 277.262C508.802 272.595 504.905 268.923 500.237 269.063L481.819 269.612C477.152 269.752 473.481 273.649 473.62 278.317L473.62 278.317C473.759 282.985 477.656 286.656 482.324 286.517L500.742 285.967C505.41 285.828 509.081 281.93 508.941 277.263Z" fill="#D1462F"/>
<path d="M163.543 76.8121L163.543 76.8124C159.51 79.167 158.15 84.3453 160.504 88.3781L169.795 104.291C172.15 108.323 177.328 109.684 181.361 107.329L181.361 107.329C185.394 104.974 186.754 99.7962 184.4 95.7634L175.109 79.8509C172.754 75.8181 167.576 74.4574 163.543 76.8121Z" fill="#D1462F"/>
<path d="M221.054 54.1585L221.054 54.1586C216.543 55.3661 213.865 60.0021 215.073 64.5132L219.837 82.3127C221.044 86.8237 225.68 89.5017 230.191 88.2942L230.192 88.2941C234.703 87.0866 237.381 82.4509 236.173 77.9399L231.409 60.1404C230.201 55.6293 225.566 52.951 221.054 54.1585Z" fill="#D1462F"/>
<path d="M76.4424 161.928L76.4421 161.928C74.1545 165.999 75.6006 171.154 79.6718 173.442L95.7357 182.468C99.8069 184.756 104.962 183.31 107.249 179.238L107.25 179.238C109.537 175.167 108.091 170.012 104.02 167.724L87.9562 158.698C83.885 156.41 78.7299 157.856 76.4424 161.928Z" fill="#D1462F"/>
<path d="M113.342 114.577L113.342 114.577C110.087 117.926 110.163 123.279 113.512 126.534L126.725 139.377C130.074 142.632 135.427 142.556 138.682 139.207L138.682 139.207C141.937 135.858 141.861 130.505 138.512 127.25L125.299 114.407C121.95 111.152 116.597 111.228 113.342 114.577Z" fill="#D1462F"/>
<path d="M44.455 278.966L44.455 278.966C44.5323 283.636 48.3802 287.358 53.0494 287.281L71.4732 286.976C76.1424 286.899 79.8648 283.051 79.7875 278.381L79.7875 278.381C79.7102 273.712 75.8625 269.989 71.1933 270.066L52.7695 270.371C48.1003 270.449 44.3777 274.297 44.455 278.966Z" fill="#D1462F"/>
<path d="M52.8597 217.726L52.8595 217.726C51.7024 222.251 54.4323 226.856 58.9565 228.013L76.8082 232.579C81.3324 233.736 85.938 231.006 87.0951 226.482L87.0953 226.482C88.2524 221.957 85.5228 217.352 80.9986 216.195L63.1469 211.629C58.6227 210.472 54.0168 213.201 52.8597 217.726Z" fill="#D1462F"/>
<path d="M410.493 195.022L280.407 294.236C276.488 296.803 271.17 295.566 268.603 291.647L265.243 286.518C262.676 282.599 263.764 277.378 267.683 274.811L410.493 195.022Z" fill="#D1462F"/>
</g>
<defs>
<clipPath id="clip0_10_37">
<rect width="554" height="554" fill="white"/>
</clipPath>
</defs>
</svg>
