<svg width="387" height="378" viewBox="0 0 387 378" fill="none" xmlns="http://www.w3.org/2000/svg">
<path d="M68.5576 211.718C44.1548 221.781 44.3397 170.52 47.4825 143.632C36.4828 137.07 13.0968 127.882 7.55075 143.632C2.00468 159.382 6.89021 204.179 9.20107 225.325C11.0812 242.529 30.6224 279.695 47.4825 270.507C72.7726 255.851 72.0701 225.208 68.5576 211.718Z" fill="#D1392F"/>
<path d="M172.175 278.339C163.608 271.183 165.453 262.398 172.175 253.796L140.782 285.152C102.804 326.22 184.736 362.565 245.5 372.5C303.239 372.5 283.734 334.573 260 319.5C246.911 311.188 236.762 304.958 228.997 303.5C212.5 303.5 195.746 298.026 172.175 278.339Z" fill="#D1392F"/>
<path d="M299.275 97.4216C270.214 86.2654 199.558 26.5104 182.458 5H107.334C140.98 35.8984 199.914 88.8011 225.703 88.8011C252.954 88.8011 52.1966 171.523 47.4825 143.632C44.3397 170.52 44.1548 221.781 68.5576 211.718C95.7406 200.509 203.257 186.477 228.997 169.623C230.742 167.53 232.532 165.428 234.366 163.32C255.175 139.407 278.365 115.259 299.275 97.4216Z" fill="#F5CA99"/>
<path d="M182.458 5C199.558 26.5104 270.214 86.2654 299.275 97.4216C278.365 115.259 255.175 139.407 234.366 163.32C234.032 165.463 232.141 167.564 228.997 169.623C194.099 211.466 176.952 249.408 172.175 253.796C165.453 262.398 163.608 271.183 172.175 278.339C195.746 298.026 212.5 303.5 228.997 303.5C284.366 246.443 375.5 113.5 375.5 113.5C386.5 102.5 381.524 82.8717 366 66.5L333.938 44.2382L272.552 5H182.458Z" fill="#F5CA99"/>
<path d="M182.458 5C199.558 26.5104 270.214 86.2654 299.275 97.4216C278.365 115.259 255.175 139.407 234.366 163.32M182.458 5H107.334M182.458 5H272.552M172.175 253.796C165.453 262.398 163.608 271.183 172.175 278.339C195.746 298.026 212.5 303.5 228.997 303.5M172.175 253.796C159.049 266.041 140.782 285.152 140.782 285.152M172.175 253.796L140.782 285.152M172.175 253.796C176.952 249.408 194.099 211.466 228.997 169.623M228.997 303.5C284.366 246.443 375.5 113.5 375.5 113.5C386.5 102.5 381.524 82.8717 366 66.5L333.938 44.2382L272.552 5M228.997 303.5C236.762 304.958 246.911 311.188 260 319.5C283.734 334.573 303.239 372.5 245.5 372.5C184.736 362.565 102.804 326.22 140.782 285.152M272.552 5H107.334M107.334 5C140.98 35.8984 199.914 88.8011 225.703 88.8011C252.954 88.8011 52.1966 171.523 47.4825 143.632M47.4825 143.632C44.3397 170.52 44.1548 221.781 68.5576 211.718M47.4825 143.632C36.4828 137.07 13.0968 127.882 7.55075 143.632C2.00468 159.382 6.89021 204.179 9.20107 225.325C11.0812 242.529 30.6224 279.695 47.4825 270.507C72.7726 255.851 72.0701 225.208 68.5576 211.718M68.5576 211.718C95.7406 200.509 203.257 186.477 228.997 169.623M234.366 163.32C232.532 165.428 230.742 167.53 228.997 169.623M234.366 163.32C234.032 165.463 232.141 167.564 228.997 169.623" stroke="black" stroke-width="10"/>
</svg>
